<?xml version="1.0" encoding="utf-8"?>
<!-- Generator: Adobe Illustrator 25.2.1, SVG Export Plug-In . SVG Version: 6.00 Build 0)  -->
<svg version="1.1" id="Layer_1" xmlns="http://www.w3.org/2000/svg" xmlns:xlink="http://www.w3.org/1999/xlink" x="0px" y="0px"
	 viewBox="0 0 843.9 597.3" style="enable-background:new 0 0 843.9 597.3;" xml:space="preserve">
<style type="text/css">
	.st0{fill:#36A692;}
</style>
<path class="st0" d="M248.7,214.6c4.8,2.2,9.2,5,13.1,8.3c9.1,7.7,15.8,17.4,20.3,29.3c4.5,11.9,6.8,25.5,6.8,40.9
	c0,13-1.5,24.6-4.6,34.7c-2.9,9.6-6.6,17.6-11,24.1c-0.6-0.7-1-1.3-1.4-1.7c-11.8-15.6-20.1-25.8-31.2-43.6
	c-5.5-8.8-16.1-28,1.3-31.9c8.2-1.9,28.9-3.5,38.9-4.5c-11.1-2.6-43,0.2-48.5-5.7c-6.4-6.9,0.9-23.9,4.2-30.8
	C242.4,221.2,245.9,218.4,248.7,214.6 M238.7,250c-11.5,2.3-7.7,18.6,4.2,16.2C253.1,264,250.8,247.6,238.7,250z M146.9,379.8V208.1
	H206c13.4,0,23.5,0.8,30.6,2.4c3.6,0.8,7,1.9,10.2,3.2c-11.4,5.4-23.5,21.6-28.8,32c-15.4,29.9-2.5,59.3,18.5,82
	c3,3.2,5.5,5.2,8.6,8.1c2.8,2.6,15.2,12.7,25,20.1c-4.1,5.1-8.5,9.2-13.2,12.3c-5.6,3.8-12.5,6.7-20.5,8.6c-8,2-17.2,2.9-27.6,2.9
	H146.9z"/>
<path class="st0" d="M652.5,356.7c5.4,0,10-1.8,13.8-5.4c3.7-3.6,5.6-8,5.6-13.2v-13.9c-4.7-3.3-10.5-5-17.2-5
	c-5.5,0-10.1,1.8-13.7,5.5c-3.6,3.7-5.4,8.4-5.4,14.1c0,5.3,1.5,9.6,4.5,12.9C643.2,355.1,647.3,356.7,652.5,356.7 M674,301h21V370
	c0,13.6-3.8,23.8-11.4,30.5c-7.6,6.7-18.2,10.1-31.7,10.1c-13.8,0-25.9-2.6-36.3-7.7l8-19.2c9.1,4.5,18.5,6.8,28.3,6.8
	c5.7,0,10.5-1.7,14.1-5.1c3.7-3.4,5.5-8,5.5-13.8v-6.3c-5.3,7.7-13.7,11.5-24.9,11.5c-10.4,0-18.8-3.4-25.3-10.3
	c-6.5-6.9-9.8-16-9.8-27.5c0-11.6,3.5-21.1,10.6-28.4c7.1-7.4,16.2-11,27.4-11c9.4,0,17.2,2.4,23.6,7.1L674,301z M560.5,357.9
	c5.4,0,9.9-1.9,13.4-5.8c3.5-3.9,5.2-8.8,5.1-14.7v-12.8c-5.4-2.7-10.9-4.1-16.3-4.1c-6,0-10.8,1.8-14.3,5.4
	c-3.5,3.6-5.2,8.3-5.2,14.1c0,5.4,1.6,9.8,4.9,13.1C551.3,356.3,555.4,357.9,560.5,357.9z M602.3,346.6c0,6,2.5,10.1,7.4,12.1
	l-10,20.4c-8.6-1.5-14.7-6-18.3-13.5c-2.6,4.3-6.3,7.7-11,10.1c-4.7,2.4-10,3.6-15.8,3.6c-10.3,0-18.8-3.5-25.6-10.6
	c-6.8-7.1-10.2-16.6-10.2-28.7c0-12.1,3.8-21.9,11.3-29.3c7.6-7.5,17.1-11.2,28.7-11.2c8.6,0,15.8,2.1,21.8,6.3l0.8-4.8h20.9V346.6z
	 M486.5,300.8H510v76.9h-23.4V369c-6.3,6.9-14.3,10.3-23.9,10.3c-9.6,0-16.8-2.8-21.6-8.5c-4.8-5.6-7.3-13.7-7.3-24.2v-45.8h23.4
	v42.5c0,10,4.4,15,13.3,15c6.2,0,11.6-2.8,16-8.5V300.8z M386.2,377.8v-56.2H373V301h13.2v-2c0-23.9,13.1-35.8,39.3-35.8h2l2.9,20.7
	h-4.1c-5.2,0-9.3,1.3-12.2,4c-2.9,2.7-4.4,6.4-4.4,11.1v2h18.3v20.6h-18.3v56.2H386.2z M319.3,329.5h28.1c-0.5-3.7-2.1-6.7-4.8-9
	c-2.7-2.3-5.6-3.4-8.8-3.4c-3.6,0-6.7,1.1-9.2,3.3C322.1,322.7,320.3,325.7,319.3,329.5z M371,342.1v3.6h-52.2
	c1.6,9.5,8.5,14.2,20.7,14.2c8.4,0,16-1.5,22.8-4.4l4.8,18.1c-8.2,3.7-17.9,5.6-29.3,5.6c-12.8,0-23.2-3.7-31.1-11
	c-7.9-7.4-11.9-16.9-11.9-28.7c0-12.5,3.6-22.3,10.9-29.4c7.3-7.1,16.6-10.7,28-10.7c11,0,19.9,3.7,26.8,11.1
	C367.6,318,371,328.5,371,342.1z"/>
</svg>
